<svg width="191" height="46" viewBox="0 0 191 46" fill="none" xmlns="http://www.w3.org/2000/svg">
<path d="M0 11.7327V35.2095L19.4162 46V39.8869V13.5947L12.7086 19.8088V36.1853L11.1046 35.3104V21.11L6.96562 24.7779V33.0558L5.29432 32.1473V14.7949L20.3248 6.12436V0L0 11.7327Z" fill="white"/>
<path d="M20.325 0V6.12436L35.3442 14.7949V32.1473L33.6841 33.0558V24.7779L29.5451 21.11V35.3104L27.9299 36.1853V19.8088L21.2335 13.5947V39.8869V46L40.6497 35.2095V11.7327L20.325 0Z" fill="white"/>
<path d="M60.688 22.192C59.824 22.192 59.0187 22.0533 58.272 21.776C57.536 21.488 56.896 21.0827 56.352 20.56C55.808 20.0373 55.3813 19.424 55.072 18.72C54.7733 18.016 54.624 17.2427 54.624 16.4C54.624 15.5573 54.7733 14.784 55.072 14.08C55.3813 13.376 55.808 12.7627 56.352 12.24C56.9067 11.7173 57.552 11.3173 58.288 11.04C59.024 10.752 59.8293 10.608 60.704 10.608C61.6747 10.608 62.5493 10.7787 63.328 11.12C64.1173 11.4507 64.7787 11.9413 65.312 12.592L63.648 14.128C63.264 13.6907 62.8373 13.3653 62.368 13.152C61.8987 12.928 61.3867 12.816 60.832 12.816C60.3093 12.816 59.8293 12.9013 59.392 13.072C58.9547 13.2427 58.576 13.488 58.256 13.808C57.936 14.128 57.6853 14.5067 57.504 14.944C57.3333 15.3813 57.248 15.8667 57.248 16.4C57.248 16.9333 57.3333 17.4187 57.504 17.856C57.6853 18.2933 57.936 18.672 58.256 18.992C58.576 19.312 58.9547 19.5573 59.392 19.728C59.8293 19.8987 60.3093 19.984 60.832 19.984C61.3867 19.984 61.8987 19.8773 62.368 19.664C62.8373 19.44 63.264 19.104 63.648 18.656L65.312 20.192C64.7787 20.8427 64.1173 21.3387 63.328 21.68C62.5493 22.0213 61.6693 22.192 60.688 22.192ZM72.268 22.192C71.3827 22.192 70.5613 22.048 69.804 21.76C69.0573 21.472 68.4067 21.0667 67.852 20.544C67.308 20.0213 66.8813 19.408 66.572 18.704C66.2733 18 66.124 17.232 66.124 16.4C66.124 15.568 66.2733 14.8 66.572 14.096C66.8813 13.392 67.3133 12.7787 67.868 12.256C68.4227 11.7333 69.0733 11.328 69.82 11.04C70.5667 10.752 71.3773 10.608 72.252 10.608C73.1373 10.608 73.948 10.752 74.684 11.04C75.4307 11.328 76.076 11.7333 76.62 12.256C77.1747 12.7787 77.6067 13.392 77.916 14.096C78.2253 14.7893 78.38 15.5573 78.38 16.4C78.38 17.232 78.2253 18.0053 77.916 18.72C77.6067 19.424 77.1747 20.0373 76.62 20.56C76.076 21.072 75.4307 21.472 74.684 21.76C73.948 22.048 73.1427 22.192 72.268 22.192ZM72.252 19.984C72.7533 19.984 73.212 19.8987 73.628 19.728C74.0547 19.5573 74.428 19.312 74.748 18.992C75.068 18.672 75.3133 18.2933 75.484 17.856C75.6653 17.4187 75.756 16.9333 75.756 16.4C75.756 15.8667 75.6653 15.3813 75.484 14.944C75.3133 14.5067 75.068 14.128 74.748 13.808C74.4387 13.488 74.0707 13.2427 73.644 13.072C73.2173 12.9013 72.7533 12.816 72.252 12.816C71.7507 12.816 71.2867 12.9013 70.86 13.072C70.444 13.2427 70.076 13.488 69.756 13.808C69.436 14.128 69.1853 14.5067 69.004 14.944C68.8333 15.3813 68.748 15.8667 68.748 16.4C68.748 16.9227 68.8333 17.408 69.004 17.856C69.1853 18.2933 69.4307 18.672 69.74 18.992C70.06 19.312 70.4333 19.5573 70.86 19.728C71.2867 19.8987 71.7507 19.984 72.252 19.984ZM80.328 22V10.8H82.472L89.08 18.864H88.04V10.8H90.6V22H88.472L81.848 13.936H82.888V22H80.328ZM98.6099 22.192C97.7459 22.192 96.9405 22.0533 96.1939 21.776C95.4579 21.488 94.8179 21.0827 94.2739 20.56C93.7299 20.0373 93.3032 19.424 92.9939 18.72C92.6952 18.016 92.5459 17.2427 92.5459 16.4C92.5459 15.5573 92.6952 14.784 92.9939 14.08C93.3032 13.376 93.7299 12.7627 94.2739 12.24C94.8285 11.7173 95.4739 11.3173 96.2099 11.04C96.9459 10.752 97.7512 10.608 98.6259 10.608C99.5965 10.608 100.471 10.7787 101.25 11.12C102.039 11.4507 102.701 11.9413 103.234 12.592L101.57 14.128C101.186 13.6907 100.759 13.3653 100.29 13.152C99.8205 12.928 99.3085 12.816 98.7539 12.816C98.2312 12.816 97.7512 12.9013 97.3139 13.072C96.8765 13.2427 96.4979 13.488 96.1779 13.808C95.8579 14.128 95.6072 14.5067 95.4259 14.944C95.2552 15.3813 95.1699 15.8667 95.1699 16.4C95.1699 16.9333 95.2552 17.4187 95.4259 17.856C95.6072 18.2933 95.8579 18.672 96.1779 18.992C96.4979 19.312 96.8765 19.5573 97.3139 19.728C97.7512 19.8987 98.2312 19.984 98.7539 19.984C99.3085 19.984 99.8205 19.8773 100.29 19.664C100.759 19.44 101.186 19.104 101.57 18.656L103.234 20.192C102.701 20.8427 102.039 21.3387 101.25 21.68C100.471 22.0213 99.5912 22.192 98.6099 22.192ZM107.195 22V12.912H103.611V10.8H113.371V12.912H109.787V22H107.195ZM114.766 22V10.8H119.614C120.616 10.8 121.48 10.9653 122.206 11.296C122.931 11.616 123.491 12.08 123.886 12.688C124.28 13.296 124.478 14.0213 124.478 14.864C124.478 15.696 124.28 16.416 123.886 17.024C123.491 17.6213 122.931 18.08 122.206 18.4C121.48 18.72 120.616 18.88 119.614 18.88H116.206L117.358 17.744V22H114.766ZM121.885 22L119.086 17.936H121.854L124.686 22H121.885ZM117.358 18.032L116.206 16.816H119.47C120.27 16.816 120.867 16.6453 121.262 16.304C121.656 15.952 121.854 15.472 121.854 14.864C121.854 14.2453 121.656 13.7653 121.262 13.424C120.867 13.0827 120.27 12.912 119.47 12.912H116.206L117.358 11.68V18.032ZM131.507 22.192C129.918 22.192 128.675 21.7493 127.779 20.864C126.883 19.9787 126.435 18.7147 126.435 17.072V10.8H129.027V16.976C129.027 18.0427 129.246 18.8107 129.683 19.28C130.12 19.7493 130.734 19.984 131.523 19.984C132.312 19.984 132.926 19.7493 133.363 19.28C133.8 18.8107 134.019 18.0427 134.019 16.976V10.8H136.579V17.072C136.579 18.7147 136.131 19.9787 135.235 20.864C134.339 21.7493 133.096 22.192 131.507 22.192ZM144.501 22.192C143.637 22.192 142.831 22.0533 142.085 21.776C141.349 21.488 140.709 21.0827 140.164 20.56C139.621 20.0373 139.194 19.424 138.885 18.72C138.586 18.016 138.437 17.2427 138.437 16.4C138.437 15.5573 138.586 14.784 138.885 14.08C139.194 13.376 139.621 12.7627 140.164 12.24C140.719 11.7173 141.365 11.3173 142.101 11.04C142.837 10.752 143.642 10.608 144.517 10.608C145.487 10.608 146.362 10.7787 147.141 11.12C147.93 11.4507 148.591 11.9413 149.125 12.592L147.461 14.128C147.077 13.6907 146.65 13.3653 146.181 13.152C145.711 12.928 145.199 12.816 144.645 12.816C144.122 12.816 143.642 12.9013 143.205 13.072C142.767 13.2427 142.389 13.488 142.069 13.808C141.749 14.128 141.498 14.5067 141.317 14.944C141.146 15.3813 141.061 15.8667 141.061 16.4C141.061 16.9333 141.146 17.4187 141.317 17.856C141.498 18.2933 141.749 18.672 142.069 18.992C142.389 19.312 142.767 19.5573 143.205 19.728C143.642 19.8987 144.122 19.984 144.645 19.984C145.199 19.984 145.711 19.8773 146.181 19.664C146.65 19.44 147.077 19.104 147.461 18.656L149.125 20.192C148.591 20.8427 147.93 21.3387 147.141 21.68C146.362 22.0213 145.482 22.192 144.501 22.192ZM153.086 22V12.912H149.502V10.8H159.262V12.912H155.678V22H153.086ZM160.656 22V10.8H163.248V22H160.656ZM171.346 22.192C170.461 22.192 169.639 22.048 168.882 21.76C168.135 21.472 167.485 21.0667 166.93 20.544C166.386 20.0213 165.959 19.408 165.65 18.704C165.351 18 165.202 17.232 165.202 16.4C165.202 15.568 165.351 14.8 165.65 14.096C165.959 13.392 166.391 12.7787 166.946 12.256C167.501 11.7333 168.151 11.328 168.898 11.04C169.645 10.752 170.455 10.608 171.33 10.608C172.215 10.608 173.026 10.752 173.762 11.04C174.509 11.328 175.154 11.7333 175.698 12.256C176.253 12.7787 176.685 13.392 176.994 14.096C177.303 14.7893 177.458 15.5573 177.458 16.4C177.458 17.232 177.303 18.0053 176.994 18.72C176.685 19.424 176.253 20.0373 175.698 20.56C175.154 21.072 174.509 21.472 173.762 21.76C173.026 22.048 172.221 22.192 171.346 22.192ZM171.33 19.984C171.831 19.984 172.29 19.8987 172.706 19.728C173.133 19.5573 173.506 19.312 173.826 18.992C174.146 18.672 174.391 18.2933 174.562 17.856C174.743 17.4187 174.834 16.9333 174.834 16.4C174.834 15.8667 174.743 15.3813 174.562 14.944C174.391 14.5067 174.146 14.128 173.826 13.808C173.517 13.488 173.149 13.2427 172.722 13.072C172.295 12.9013 171.831 12.816 171.33 12.816C170.829 12.816 170.365 12.9013 169.938 13.072C169.522 13.2427 169.154 13.488 168.834 13.808C168.514 14.128 168.263 14.5067 168.082 14.944C167.911 15.3813 167.826 15.8667 167.826 16.4C167.826 16.9227 167.911 17.408 168.082 17.856C168.263 18.2933 168.509 18.672 168.818 18.992C169.138 19.312 169.511 19.5573 169.938 19.728C170.365 19.8987 170.829 19.984 171.33 19.984ZM179.406 22V10.8H181.55L188.158 18.864H187.118V10.8H189.678V22H187.55L180.926 13.936H181.966V22H179.406Z" fill="white"/>
<path d="M58.17 37.05C57.65 37.05 57.1833 36.9367 56.77 36.71C56.3633 36.4767 56.0433 36.16 55.81 35.76C55.5767 35.3533 55.46 34.89 55.46 34.37C55.46 33.8433 55.5767 33.38 55.81 32.98C56.0433 32.58 56.3633 32.2667 56.77 32.04C57.1833 31.8133 57.65 31.7 58.17 31.7C58.6167 31.7 59.02 31.7867 59.38 31.96C59.74 32.1333 60.0233 32.3933 60.23 32.74L59.7 33.1C59.52 32.8333 59.2967 32.6367 59.03 32.51C58.7633 32.3833 58.4733 32.32 58.16 32.32C57.7867 32.32 57.45 32.4067 57.15 32.58C56.85 32.7467 56.6133 32.9833 56.44 33.29C56.2667 33.5967 56.18 33.9567 56.18 34.37C56.18 34.7833 56.2667 35.1433 56.44 35.45C56.6133 35.7567 56.85 35.9967 57.15 36.17C57.45 36.3367 57.7867 36.42 58.16 36.42C58.4733 36.42 58.7633 36.3567 59.03 36.23C59.2967 36.1033 59.52 35.91 59.7 35.65L60.23 36.01C60.0233 36.35 59.74 36.61 59.38 36.79C59.02 36.9633 58.6167 37.05 58.17 37.05ZM65.9769 37.05C65.4702 37.05 65.0135 36.9367 64.6069 36.71C64.2069 36.4767 63.8902 36.16 63.6569 35.76C63.4235 35.3533 63.3069 34.89 63.3069 34.37C63.3069 33.8433 63.4235 33.38 63.6569 32.98C63.8902 32.58 64.2069 32.2667 64.6069 32.04C65.0069 31.8133 65.4635 31.7 65.9769 31.7C66.4969 31.7 66.9569 31.8133 67.3569 32.04C67.7635 32.2667 68.0802 32.58 68.3069 32.98C68.5402 33.38 68.6569 33.8433 68.6569 34.37C68.6569 34.89 68.5402 35.3533 68.3069 35.76C68.0802 36.16 67.7635 36.4767 67.3569 36.71C66.9502 36.9367 66.4902 37.05 65.9769 37.05ZM65.9769 36.42C66.3569 36.42 66.6935 36.3367 66.9869 36.17C67.2802 35.9967 67.5102 35.7567 67.6769 35.45C67.8502 35.1367 67.9369 34.7767 67.9369 34.37C67.9369 33.9567 67.8502 33.5967 67.6769 33.29C67.5102 32.9833 67.2802 32.7467 66.9869 32.58C66.6935 32.4067 66.3602 32.32 65.9869 32.32C65.6135 32.32 65.2802 32.4067 64.9869 32.58C64.6935 32.7467 64.4602 32.9833 64.2869 33.29C64.1135 33.5967 64.0269 33.9567 64.0269 34.37C64.0269 34.7767 64.1135 35.1367 64.2869 35.45C64.4602 35.7567 64.6935 35.9967 64.9869 36.17C65.2802 36.3367 65.6102 36.42 65.9769 36.42ZM75.0864 31.7C75.5131 31.7 75.8864 31.7833 76.2064 31.95C76.5331 32.11 76.7864 32.3567 76.9664 32.69C77.1531 33.0233 77.2464 33.4433 77.2464 33.95V37H76.5364V34.02C76.5364 33.4667 76.3964 33.05 76.1164 32.77C75.8431 32.4833 75.4564 32.34 74.9564 32.34C74.5831 32.34 74.2564 32.4167 73.9764 32.57C73.7031 32.7167 73.4897 32.9333 73.3364 33.22C73.1897 33.5 73.1164 33.84 73.1164 34.24V37H72.4064V31.75H73.0864V33.19L72.9764 32.92C73.1431 32.54 73.4097 32.2433 73.7764 32.03C74.1431 31.81 74.5797 31.7 75.0864 31.7ZM82.8742 37.05C82.4409 37.05 82.0309 36.99 81.6442 36.87C81.2576 36.7433 80.9542 36.5867 80.7342 36.4L81.0542 35.84C81.2676 36 81.5409 36.14 81.8742 36.26C82.2076 36.3733 82.5576 36.43 82.9242 36.43C83.4242 36.43 83.7842 36.3533 84.0042 36.2C84.2242 36.04 84.3342 35.83 84.3342 35.57C84.3342 35.3767 84.2709 35.2267 84.1442 35.12C84.0242 35.0067 83.8642 34.9233 83.6642 34.87C83.4642 34.81 83.2409 34.76 82.9942 34.72C82.7476 34.68 82.5009 34.6333 82.2542 34.58C82.0142 34.5267 81.7942 34.45 81.5942 34.35C81.3942 34.2433 81.2309 34.1 81.1042 33.92C80.9842 33.74 80.9242 33.5 80.9242 33.2C80.9242 32.9133 81.0042 32.6567 81.1642 32.43C81.3242 32.2033 81.5576 32.0267 81.8642 31.9C82.1776 31.7667 82.5576 31.7 83.0042 31.7C83.3442 31.7 83.6842 31.7467 84.0242 31.84C84.3642 31.9267 84.6442 32.0433 84.8642 32.19L84.5542 32.76C84.3209 32.6 84.0709 32.4867 83.8042 32.42C83.5376 32.3467 83.2709 32.31 83.0042 32.31C82.5309 32.31 82.1809 32.3933 81.9542 32.56C81.7342 32.72 81.6242 32.9267 81.6242 33.18C81.6242 33.38 81.6842 33.5367 81.8042 33.65C81.9309 33.7633 82.0942 33.8533 82.2942 33.92C82.5009 33.98 82.7242 34.03 82.9642 34.07C83.2109 34.11 83.4542 34.16 83.6942 34.22C83.9409 34.2733 84.1642 34.35 84.3642 34.45C84.5709 34.5433 84.7342 34.68 84.8542 34.86C84.9809 35.0333 85.0442 35.2633 85.0442 35.55C85.0442 35.8567 84.9576 36.1233 84.7842 36.35C84.6176 36.57 84.3709 36.7433 84.0442 36.87C83.7242 36.99 83.3342 37.05 82.8742 37.05ZM90.307 37.05C89.8137 37.05 89.4337 36.9167 89.167 36.65C88.9004 36.3833 88.767 36.0067 88.767 35.52V30.59H89.477V35.48C89.477 35.7867 89.5537 36.0233 89.707 36.19C89.867 36.3567 90.0937 36.44 90.387 36.44C90.7004 36.44 90.9604 36.35 91.167 36.17L91.417 36.68C91.277 36.8067 91.107 36.9 90.907 36.96C90.7137 37.02 90.5137 37.05 90.307 37.05ZM87.827 32.34V31.75H91.077V32.34H87.827ZM95.0095 37V31.75H95.6895V33.18L95.6195 32.93C95.7662 32.53 96.0129 32.2267 96.3595 32.02C96.7062 31.8067 97.1362 31.7 97.6495 31.7V32.39C97.6229 32.39 97.5962 32.39 97.5695 32.39C97.5429 32.3833 97.5162 32.38 97.4895 32.38C96.9362 32.38 96.5029 32.55 96.1895 32.89C95.8762 33.2233 95.7195 33.7 95.7195 34.32V37H95.0095ZM103.493 37.05C103.047 37.05 102.657 36.9667 102.323 36.8C101.99 36.6333 101.73 36.3833 101.543 36.05C101.363 35.7167 101.273 35.3 101.273 34.8V31.75H101.983V34.72C101.983 35.28 102.12 35.7033 102.393 35.99C102.673 36.27 103.063 36.41 103.563 36.41C103.93 36.41 104.247 36.3367 104.513 36.19C104.787 36.0367 104.993 35.8167 105.133 35.53C105.28 35.2433 105.353 34.9 105.353 34.5V31.75H106.063V37H105.383V35.56L105.493 35.82C105.327 36.2067 105.067 36.51 104.713 36.73C104.367 36.9433 103.96 37.05 103.493 37.05ZM112.522 37.05C112.002 37.05 111.535 36.9367 111.122 36.71C110.715 36.4767 110.395 36.16 110.162 35.76C109.929 35.3533 109.812 34.89 109.812 34.37C109.812 33.8433 109.929 33.38 110.162 32.98C110.395 32.58 110.715 32.2667 111.122 32.04C111.535 31.8133 112.002 31.7 112.522 31.7C112.969 31.7 113.372 31.7867 113.732 31.96C114.092 32.1333 114.375 32.3933 114.582 32.74L114.052 33.1C113.872 32.8333 113.649 32.6367 113.382 32.51C113.115 32.3833 112.825 32.32 112.512 32.32C112.139 32.32 111.802 32.4067 111.502 32.58C111.202 32.7467 110.965 32.9833 110.792 33.29C110.619 33.5967 110.532 33.9567 110.532 34.37C110.532 34.7833 110.619 35.1433 110.792 35.45C110.965 35.7567 111.202 35.9967 111.502 36.17C111.802 36.3367 112.139 36.42 112.512 36.42C112.825 36.42 113.115 36.3567 113.382 36.23C113.649 36.1033 113.872 35.91 114.052 35.65L114.582 36.01C114.375 36.35 114.092 36.61 113.732 36.79C113.372 36.9633 112.969 37.05 112.522 37.05ZM119.995 37.05C119.502 37.05 119.122 36.9167 118.855 36.65C118.589 36.3833 118.455 36.0067 118.455 35.52V30.59H119.165V35.48C119.165 35.7867 119.242 36.0233 119.395 36.19C119.555 36.3567 119.782 36.44 120.075 36.44C120.389 36.44 120.649 36.35 120.855 36.17L121.105 36.68C120.965 36.8067 120.795 36.9 120.595 36.96C120.402 37.02 120.202 37.05 119.995 37.05ZM117.515 32.34V31.75H120.765V32.34H117.515ZM124.698 37V31.75H125.408V37H124.698ZM125.058 30.59C124.911 30.59 124.788 30.54 124.688 30.44C124.588 30.34 124.538 30.22 124.538 30.08C124.538 29.94 124.588 29.8233 124.688 29.73C124.788 29.63 124.911 29.58 125.058 29.58C125.204 29.58 125.328 29.6267 125.428 29.72C125.528 29.8133 125.578 29.93 125.578 30.07C125.578 30.2167 125.528 30.34 125.428 30.44C125.334 30.54 125.211 30.59 125.058 30.59ZM131.823 37.05C131.317 37.05 130.86 36.9367 130.453 36.71C130.053 36.4767 129.737 36.16 129.503 35.76C129.27 35.3533 129.153 34.89 129.153 34.37C129.153 33.8433 129.27 33.38 129.503 32.98C129.737 32.58 130.053 32.2667 130.453 32.04C130.853 31.8133 131.31 31.7 131.823 31.7C132.343 31.7 132.803 31.8133 133.203 32.04C133.61 32.2667 133.927 32.58 134.153 32.98C134.387 33.38 134.503 33.8433 134.503 34.37C134.503 34.89 134.387 35.3533 134.153 35.76C133.927 36.16 133.61 36.4767 133.203 36.71C132.797 36.9367 132.337 37.05 131.823 37.05ZM131.823 36.42C132.203 36.42 132.54 36.3367 132.833 36.17C133.127 35.9967 133.357 35.7567 133.523 35.45C133.697 35.1367 133.783 34.7767 133.783 34.37C133.783 33.9567 133.697 33.5967 133.523 33.29C133.357 32.9833 133.127 32.7467 132.833 32.58C132.54 32.4067 132.207 32.32 131.833 32.32C131.46 32.32 131.127 32.4067 130.833 32.58C130.54 32.7467 130.307 32.9833 130.133 33.29C129.96 33.5967 129.873 33.9567 129.873 34.37C129.873 34.7767 129.96 35.1367 130.133 35.45C130.307 35.7567 130.54 35.9967 130.833 36.17C131.127 36.3367 131.457 36.42 131.823 36.42ZM140.933 31.7C141.36 31.7 141.733 31.7833 142.053 31.95C142.38 32.11 142.633 32.3567 142.813 32.69C143 33.0233 143.093 33.4433 143.093 33.95V37H142.383V34.02C142.383 33.4667 142.243 33.05 141.963 32.77C141.69 32.4833 141.303 32.34 140.803 32.34C140.43 32.34 140.103 32.4167 139.823 32.57C139.55 32.7167 139.336 32.9333 139.183 33.22C139.036 33.5 138.963 33.84 138.963 34.24V37H138.253V31.75H138.933V33.19L138.823 32.92C138.99 32.54 139.256 32.2433 139.623 32.03C139.99 31.81 140.426 31.7 140.933 31.7ZM153.298 37L151.318 31.75H151.998L153.798 36.62H153.488L155.338 31.75H155.948L157.778 36.62H157.468L159.298 31.75H159.948L157.958 37H157.288L155.528 32.42H155.738L153.968 37H153.298ZM165.31 37.05C164.804 37.05 164.347 36.9367 163.94 36.71C163.54 36.4767 163.224 36.16 162.99 35.76C162.757 35.3533 162.64 34.89 162.64 34.37C162.64 33.8433 162.757 33.38 162.99 32.98C163.224 32.58 163.54 32.2667 163.94 32.04C164.34 31.8133 164.797 31.7 165.31 31.7C165.83 31.7 166.29 31.8133 166.69 32.04C167.097 32.2667 167.414 32.58 167.64 32.98C167.874 33.38 167.99 33.8433 167.99 34.37C167.99 34.89 167.874 35.3533 167.64 35.76C167.414 36.16 167.097 36.4767 166.69 36.71C166.284 36.9367 165.824 37.05 165.31 37.05ZM165.31 36.42C165.69 36.42 166.027 36.3367 166.32 36.17C166.614 35.9967 166.844 35.7567 167.01 35.45C167.184 35.1367 167.27 34.7767 167.27 34.37C167.27 33.9567 167.184 33.5967 167.01 33.29C166.844 32.9833 166.614 32.7467 166.32 32.58C166.027 32.4067 165.694 32.32 165.32 32.32C164.947 32.32 164.614 32.4067 164.32 32.58C164.027 32.7467 163.794 32.9833 163.62 33.29C163.447 33.5967 163.36 33.9567 163.36 34.37C163.36 34.7767 163.447 35.1367 163.62 35.45C163.794 35.7567 164.027 35.9967 164.32 36.17C164.614 36.3367 164.944 36.42 165.31 36.42ZM171.74 37V31.75H172.42V33.18L172.35 32.93C172.497 32.53 172.743 32.2267 173.09 32.02C173.437 31.8067 173.867 31.7 174.38 31.7V32.39C174.353 32.39 174.327 32.39 174.3 32.39C174.273 32.3833 174.247 32.38 174.22 32.38C173.667 32.38 173.233 32.55 172.92 32.89C172.607 33.2233 172.45 33.7 172.45 34.32V37H171.74ZM178.536 35.64L178.556 34.73L181.826 31.75H182.696L180.386 33.96L179.986 34.3L178.536 35.64ZM177.976 37V29.58H178.686V37H177.976ZM182.046 37L179.856 34.27L180.316 33.72L182.916 37H182.046ZM187.535 37.05C187.102 37.05 186.692 36.99 186.305 36.87C185.918 36.7433 185.615 36.5867 185.395 36.4L185.715 35.84C185.928 36 186.202 36.14 186.535 36.26C186.868 36.3733 187.218 36.43 187.585 36.43C188.085 36.43 188.445 36.3533 188.665 36.2C188.885 36.04 188.995 35.83 188.995 35.57C188.995 35.3767 188.932 35.2267 188.805 35.12C188.685 35.0067 188.525 34.9233 188.325 34.87C188.125 34.81 187.902 34.76 187.655 34.72C187.408 34.68 187.162 34.6333 186.915 34.58C186.675 34.5267 186.455 34.45 186.255 34.35C186.055 34.2433 185.892 34.1 185.765 33.92C185.645 33.74 185.585 33.5 185.585 33.2C185.585 32.9133 185.665 32.6567 185.825 32.43C185.985 32.2033 186.218 32.0267 186.525 31.9C186.838 31.7667 187.218 31.7 187.665 31.7C188.005 31.7 188.345 31.7467 188.685 31.84C189.025 31.9267 189.305 32.0433 189.525 32.19L189.215 32.76C188.982 32.6 188.732 32.4867 188.465 32.42C188.198 32.3467 187.932 32.31 187.665 32.31C187.192 32.31 186.842 32.3933 186.615 32.56C186.395 32.72 186.285 32.9267 186.285 33.18C186.285 33.38 186.345 33.5367 186.465 33.65C186.592 33.7633 186.755 33.8533 186.955 33.92C187.162 33.98 187.385 34.03 187.625 34.07C187.872 34.11 188.115 34.16 188.355 34.22C188.602 34.2733 188.825 34.35 189.025 34.45C189.232 34.5433 189.395 34.68 189.515 34.86C189.642 35.0333 189.705 35.2633 189.705 35.55C189.705 35.8567 189.618 36.1233 189.445 36.35C189.278 36.57 189.032 36.7433 188.705 36.87C188.385 36.99 187.995 37.05 187.535 37.05Z" fill="#A3A1A1"/>
</svg>
