<svg width="25" height="24" viewBox="0 0 25 24" fill="none" xmlns="http://www.w3.org/2000/svg">
<g clip-path="url(#clip0_1123_251)">
<path d="M24.5937 4.54404C23.7066 4.93317 22.7614 5.1911 21.7759 5.31633C22.7897 4.71102 23.5635 3.75981 23.9273 2.6133C22.982 3.17686 21.9384 3.57494 20.8262 3.79709C19.9286 2.84141 18.6494 2.24951 17.2539 2.24951C14.5464 2.24951 12.3667 4.44713 12.3667 7.14122C12.3667 7.52886 12.3995 7.90159 12.48 8.25643C8.41427 8.05813 4.81668 6.1095 2.3999 3.14108C1.97797 3.87312 1.73048 4.71102 1.73048 5.61303C1.73048 7.30671 2.60266 8.80807 3.90275 9.67727C3.11703 9.66236 2.34623 9.43425 1.6932 9.07494C1.6932 9.08985 1.6932 9.10923 1.6932 9.12861C1.6932 11.5051 3.38838 13.4791 5.61134 13.9338C5.21326 14.0427 4.77941 14.0949 4.32915 14.0949C4.01606 14.0949 3.69998 14.077 3.40329 14.0114C4.03693 15.9481 5.83498 17.3719 7.97296 17.4181C6.30909 18.7197 4.19646 19.5039 1.90939 19.5039C1.50833 19.5039 1.12367 19.486 0.739014 19.4368C2.90532 20.8338 5.47268 21.6315 8.24132 21.6315C17.2405 21.6315 22.1605 14.1769 22.1605 7.71522C22.1605 7.49904 22.1531 7.29031 22.1427 7.08307C23.1132 6.39427 23.9288 5.53401 24.5937 4.54404Z" fill="#D6CECE"/>
</g>
<defs>
<clipPath id="clip0_1123_251">
<rect width="23.8547" height="23.8547" fill="white" transform="translate(0.739014 0.0126953)"/>
</clipPath>
</defs>
</svg>
