<svg width="23" height="24" viewBox="0 0 23 24" fill="none" xmlns="http://www.w3.org/2000/svg">
<g clip-path="url(#clip0_1123_257)">
<path d="M19.8522 12.4036C20.1679 11.9955 20.4185 11.668 20.6036 11.421C21.9367 9.64864 22.5145 8.51646 22.3374 8.02285L22.2679 7.90724C22.2217 7.83781 22.1021 7.77404 21.9096 7.71632C21.7169 7.65865 21.4703 7.64943 21.1699 7.68751L17.841 7.71098C17.7639 7.70331 17.6868 7.7051 17.6098 7.71632C17.5327 7.72804 17.4827 7.7398 17.4594 7.75102C17.4362 7.76278 17.4171 7.77221 17.4017 7.77988L17.3556 7.81458C17.317 7.83756 17.2747 7.87813 17.2285 7.9361C17.1823 7.99403 17.1435 8.06117 17.1129 8.13849C16.7507 9.07083 16.3385 9.93786 15.8761 10.7393C15.5909 11.2171 15.3288 11.6316 15.0902 11.9817C14.8513 12.3327 14.6509 12.5907 14.4891 12.7561C14.3273 12.9218 14.1808 13.055 14.0499 13.1548C13.9187 13.2553 13.8187 13.2975 13.7495 13.2822C13.68 13.2669 13.6145 13.2515 13.553 13.2357C13.445 13.1666 13.3582 13.0723 13.2929 12.9527C13.2273 12.8335 13.1832 12.6831 13.1599 12.5019C13.1369 12.321 13.1232 12.1648 13.1196 12.0336C13.1155 11.9027 13.1175 11.7179 13.1254 11.4787C13.1331 11.2398 13.1369 11.0783 13.1369 10.9933C13.1369 10.7008 13.1428 10.3828 13.1543 10.0397C13.1658 9.69698 13.1755 9.42515 13.1832 9.22476C13.1908 9.02467 13.1946 8.81256 13.1946 8.58898C13.1946 8.36591 13.1811 8.19029 13.154 8.06297C13.1269 7.9361 13.0864 7.81283 13.0328 7.69314C12.9787 7.57394 12.8998 7.48128 12.7956 7.41597C12.6916 7.35037 12.5626 7.29857 12.4085 7.25975C11.9998 7.16708 11.4797 7.11758 10.848 7.10944C9.41465 7.09464 8.49378 7.18701 8.08541 7.38711C7.9236 7.4721 7.77709 7.58746 7.64618 7.73396C7.50735 7.9037 7.48821 7.99632 7.58851 8.01113C8.05096 8.08057 8.37822 8.24647 8.57089 8.50833L8.64033 8.64691C8.69417 8.74746 8.74805 8.92462 8.80214 9.1788C8.85602 9.43303 8.89072 9.71428 8.90628 10.0226C8.94481 10.5851 8.94481 11.0665 8.90628 11.4675C8.86774 11.8684 8.83125 12.1803 8.79655 12.4034C8.76181 12.627 8.70977 12.8079 8.64058 12.9465C8.57114 13.0856 8.52497 13.1704 8.50175 13.2012C8.47852 13.2318 8.45937 13.2512 8.44407 13.2589C8.34377 13.2972 8.23988 13.3166 8.13195 13.3166C8.02398 13.3166 7.89303 13.2625 7.73889 13.1545C7.58471 13.0471 7.42469 12.8985 7.25929 12.7096C7.0934 12.5211 6.90681 12.2569 6.69854 11.9177C6.49052 11.579 6.27458 11.178 6.05125 10.7158L5.86646 10.3804C5.75086 10.165 5.59284 9.85082 5.39249 9.43862C5.19214 9.02642 5.01474 8.62777 4.86085 8.24213C4.79908 8.08057 4.70667 7.95729 4.58343 7.8723L4.52575 7.8376C4.48722 7.80695 4.42546 7.77404 4.34071 7.73955C4.25572 7.70485 4.16743 7.67983 4.07476 7.66428L0.907626 7.68726C0.584001 7.68726 0.364512 7.76078 0.248908 7.90724L0.2027 7.97643C0.179346 8.01522 0.167877 8.07698 0.167877 8.16147C0.167877 8.24647 0.191106 8.35035 0.237315 8.47338C0.699772 9.56015 1.2026 10.6081 1.74571 11.6173C2.28912 12.627 2.76104 13.4401 3.16174 14.0565C3.56243 14.6734 3.9708 15.2548 4.38709 15.802C4.80338 16.3492 5.07875 16.6996 5.2135 16.8535C5.34824 17.008 5.45417 17.1236 5.53128 17.2004L5.82021 17.4781C6.005 17.6629 6.27683 17.8844 6.63519 18.1427C6.99351 18.401 7.39016 18.6552 7.82585 18.9053C8.26103 19.156 8.7679 19.3599 9.34571 19.5181C9.92357 19.6764 10.4861 19.7399 11.0333 19.7088H12.3625C12.6323 19.6858 12.8364 19.6013 12.9751 19.4545L13.0213 19.3969C13.0519 19.3509 13.081 19.2795 13.108 19.1832C13.1348 19.087 13.1487 18.9808 13.1487 18.8655C13.1407 18.5342 13.166 18.2351 13.2237 17.9696C13.2814 17.7037 13.3469 17.5036 13.4203 17.3683C13.4935 17.2338 13.5761 17.12 13.6688 17.0273C13.7612 16.9347 13.8265 16.8793 13.8653 16.8599C13.9039 16.841 13.9348 16.8275 13.9578 16.8193C14.1425 16.7577 14.3602 16.8175 14.6109 16.9985C14.8613 17.18 15.0963 17.403 15.3161 17.6689C15.5355 17.9349 15.7994 18.2332 16.1078 18.5648C16.4159 18.896 16.6856 19.1426 16.9169 19.3044L17.1481 19.4435C17.3022 19.5357 17.5023 19.6204 17.7491 19.6978C17.9957 19.7746 18.2116 19.794 18.3964 19.7554L21.3555 19.709C21.6483 19.709 21.8757 19.661 22.0375 19.5645C22.1993 19.4688 22.2956 19.3621 22.3265 19.2468C22.3571 19.1312 22.3591 19.0008 22.3323 18.854C22.3053 18.7077 22.2783 18.6056 22.2515 18.5479C22.2245 18.4903 22.1994 18.4418 22.1761 18.4035C21.7908 17.71 21.0549 16.8583 19.9684 15.8489L19.9452 15.8259L19.9337 15.8142L19.9222 15.8029H19.9106C19.4173 15.3328 19.1054 15.0168 18.9744 14.8547C18.7356 14.547 18.6814 14.2348 18.8126 13.9189C18.9045 13.6793 19.2511 13.1744 19.8522 12.4036Z" fill="#D6CECE"/>
</g>
<defs>
<clipPath id="clip0_1123_257">
<rect width="22.2007" height="22.2007" fill="white" transform="translate(0.0882874 0.839844)"/>
</clipPath>
</defs>
</svg>
