<svg width="23" height="22" viewBox="0 0 23 22" fill="none" xmlns="http://www.w3.org/2000/svg">
<g clip-path="url(#clip0_1123_268)">
<path d="M0.633244 10.5783L5.73035 12.3222L7.70325 18.1382C7.82948 18.5107 8.32639 18.6484 8.65622 18.4012L11.4974 16.278C11.7953 16.0556 12.2195 16.0445 12.5307 16.2516L17.6552 19.6621C18.0081 19.8972 18.5079 19.7199 18.5964 19.3291L22.3504 2.77651C22.447 2.3496 21.9894 1.99346 21.5459 2.15068L0.627272 9.54799C0.111043 9.73048 0.11554 10.4005 0.633244 10.5783ZM7.38529 11.3939L17.3469 5.76974C17.526 5.66896 17.7102 5.89087 17.5564 6.02159L9.33518 13.0268C9.04621 13.2734 8.8598 13.6034 8.80701 13.9615L8.52696 15.864C8.48987 16.118 8.10061 16.1432 8.02415 15.8974L6.94708 12.4282C6.82372 12.0325 7.00349 11.6099 7.38529 11.3939Z" fill="#D6CECE"/>
</g>
<defs>
<clipPath id="clip0_1123_268">
<rect width="22.1209" height="20.2775" fill="white" transform="translate(0.242554 0.80127)"/>
</clipPath>
</defs>
</svg>
